<svg width="256" height="212" xmlns="http://www.w3.org/2000/svg" xmlns:svg="http://www.w3.org/2000/svg" xmlns:xlink="http://www.w3.org/1999/xlink">
 <g class="layer">
  <title>Layer 1</title>
  <rect fill="url(#svg_5)" height="212" id="svg_4" opacity="0.8" stroke-dasharray="null" stroke-linecap="null" stroke-linejoin="null" stroke-width="null" width="256" x="0" y="0"/>
  <use id="svg_7" transform="matrix(0.996597 0 0 0.996597 1.95412 2.07118)" x="-1.00342" xlink:href="#svg_6" y="-2.00683"/>
  <g id="svg_8"/>
 </g>
 <defs>
  <linearGradient id="svg_5">
   <stop offset="0" stop-color="#c6ffdd"/>
   <stop offset="0.5" stop-color="#fbd786"/>
   <stop offset="1" stop-color="#f7797d"/>
  </linearGradient>
  <symbol height="2070" id="svg_6" viewBox="0 0 256 212" width="2500" xmlns="http://www.w3.org/2000/svg">
   <path d="m0,32.692l59.85,0l0,17.603l-59.85,0l0,-17.603zm0,-32.692l59.85,0l0,17.603l-59.85,0l0,-17.603zm107.38,65.132l-107.38,0l0,17.603l103.356,0c11.316,0 37.72,0.251 47.528,16.094l0,-9.807c-4.778,-15.592 -18.86,-23.89 -43.505,-23.89l0.001,0zm0.25,32.691l-107.63,0l0,17.603l103.356,0c25.147,0 40.99,1.006 47.528,4.527l0,-7.796c-5.03,-12.322 -26.153,-14.334 -43.253,-14.334l-0.001,0zm-0.25,82.986l-107.38,0l0,-17.603l103.356,0c11.316,0 37.72,-0.251 47.528,-16.094l0,9.807c-4.778,15.592 -18.86,23.89 -43.505,23.89l0.001,0zm0.25,-32.691l-107.63,0l0,-17.603l103.356,0c25.147,0 40.99,-1.006 47.528,-4.527l0,7.796c-5.03,12.322 -26.153,14.334 -43.253,14.334l-0.001,0zm69.407,63.12l78.963,0l0,-10.814l-76.7,0c-6.79,0 -22.883,-0.251 -28.667,-9.556l0,6.036c2.766,9.304 11.316,14.334 26.404,14.334zm-0.251,-19.867l78.963,0l0,-10.813l-76.449,0c-15.34,0 -24.896,-0.503 -28.668,-2.766l0,4.778c3.017,7.544 15.842,8.801 26.153,8.801l0.001,0z" fill="#010101"/>
  </symbol>
 </defs>
</svg>