<svg width="670" height="630" xmlns="http://www.w3.org/2000/svg" xmlns:svg="http://www.w3.org/2000/svg">
 <g class="layer">
  <title>Layer 1</title>
  <ellipse cx="335.5" cy="315.38006" fill="#000000" fill-opacity="0.01" id="svg_5" rx="331.5" ry="311.38006" stroke="#e684ae" stroke-dasharray="null" stroke-linecap="null" stroke-linejoin="null" stroke-width="6"/>
  <g id="svg_4">
   <path d="m418.16233,233.87424c-7.48595,-7.48941 -19.67222,-7.48595 -27.16161,0c-1.00919,1.00918 -1.86976,2.10823 -2.60937,3.26602c2.18427,-8.92023 -2.27758,-18.33469 -10.98008,-22.12605c-9.70822,-4.23375 -21.0512,0.22465 -25.28149,9.93633l-60.68593,139.26418c2.64047,-6.87075 1.20618,-14.95807 -4.3236,-20.48785l-41.40426,-41.40426l41.40426,-41.40427c7.4894,-7.4894 7.4894,-19.67567 0,-27.16507c-7.50668,-7.50669 -19.65493,-7.50669 -27.16507,0l-54.98335,54.98679c-7.4894,7.48941 -7.4894,19.67222 0,27.16161l54.98335,54.9868c7.51014,7.50669 19.65839,7.50669 27.16507,0c1.76607,-1.76607 3.10014,-3.79827 4.03328,-5.9618c-3.81209,9.5769 0.65321,20.55352 10.16789,24.70086c9.73242,4.24066 21.04083,-0.20045 25.28149,-9.93287l59.08921,-135.60416c-1.05758,5.96871 0.70504,12.34525 5.30859,16.94879l41.2833,41.28331l-41.2833,41.2833c-7.48941,7.48941 -7.48941,19.67222 0,27.16161c7.48594,7.48941 19.67221,7.48941 27.16161,0l54.86583,-54.86238c7.48595,-7.4894 7.48595,-19.67567 0,-27.16507l-54.86583,-54.86583zm-140.42889,127.62744c-2.31906,2.31905 -6.0724,2.31905 -8.39145,0l-54.9868,-54.98335c-2.31214,-2.31559 -2.31214,-6.08276 0,-8.3949l54.9868,-54.98679c2.31905,-2.31906 6.07239,-2.31906 8.39145,0c2.31559,2.31559 2.31559,6.0793 0,8.39144l-46.09768,46.09767c-2.58863,2.59209 -2.58863,6.79473 0,9.38681l46.09768,46.09767c2.31559,2.31214 2.31559,6.0793 0,8.39145zm97.44518,-126.51112l-60.74124,139.39897c-1.31332,3.01028 -4.81091,4.3789 -7.81082,3.06903c-2.99991,-1.30641 -4.3789,-4.81091 -3.07249,-7.81082l60.74123,-139.39551c1.31333,-3.00682 4.82128,-4.37545 7.81429,-3.07249c3.00336,1.30987 4.38235,4.79708 3.06903,7.81082zm88.46619,71.52777l-54.86584,54.86239c-2.31214,2.31559 -6.07931,2.31559 -8.3949,0l0.00345,0c-2.31559,-2.31214 -2.31559,-6.07931 0,-8.39145l45.97671,-45.9767c2.58863,-2.58863 2.58863,-6.79127 0,-9.38336l-45.97671,-45.9767c-2.31559,-2.31215 -2.31559,-6.07931 -0.00345,-8.39145c2.31559,-2.31214 6.08276,-2.3156 8.3949,0l54.86584,54.86584c2.31214,2.30868 2.31214,6.07585 0,8.39144zm0,0" fill="white" id="svg_1"/>
   <path d="m152.07598,144.9c-5.05975,0 -9.17598,4.11623 -9.17598,9.17598l0,263.63597c0,5.05975 4.11623,9.17598 9.17598,9.17598l373.85149,0c5.05975,0 9.17253,-4.11624 9.17253,-9.17598c0,-11.16672 0,-252.44506 0,-263.63597c0,-5.05975 -4.11278,-9.17598 -9.17253,-9.17598c-3.43884,0 -370.54399,0 -373.85149,0zm369.75254,30.39653l-335.25705,0l0,-17.12505l335.25705,0l0,17.12505zm-365.65704,-17.12505l17.12505,0l0,17.12505l-17.12505,0l0,-17.12505zm0,255.44151l0,-225.04152l365.65704,0l0,225.04152l-365.65704,0zm0,0" fill="#77a1d3" id="svg_2"/>
   <path d="m525.92402,114.5l-373.84804,0c-21.82537,0 -39.57598,17.75407 -39.57598,39.57252l0,263.63943c0,21.82191 17.75061,39.57252 39.57598,39.57252l165.08828,0l0,41.46302l-71.01626,0c-11.79572,0 -21.3899,9.59418 -21.3899,21.3899l0,0.89514c0,11.79226 9.59418,21.38644 21.3899,21.38644l77.73495,0c3.66694,0 6.63574,-2.9688 6.63574,-6.63574c0,-3.66348 -2.9688,-6.63574 -6.63574,-6.63574l-77.73495,0c-4.47568,0 -8.11841,-3.63929 -8.11841,-8.11496l0,-0.89514c0,-4.47567 3.64274,-8.11496 8.11841,-8.11496l185.70401,0c4.47568,0 8.11841,3.63929 8.11841,8.11496l0,0.89514c0,4.47567 -3.64274,8.11496 -8.11841,8.11496l-76.9988,0c-3.66694,0 -6.63574,2.97226 -6.63574,6.63574c0,3.66695 2.9688,6.63574 6.63574,6.63574l76.9988,0c11.79572,0 21.3899,-9.59418 21.3899,-21.38644l0,-0.89514c0,-11.79572 -9.59418,-21.3899 -21.3899,-21.3899l-71.01626,0l0,-41.46302l165.08828,0c21.82191,0 39.57598,-17.75061 39.57598,-39.57253l0,-116.33631c0,-3.66348 -2.9688,-6.63574 -6.63574,-6.63574s-6.63574,2.97226 -6.63574,6.63574l0,116.33631c0,14.50187 -11.79918,26.30105 -26.3045,26.30105c-2.70959,0 -366.84595,0 -373.85149,0c-14.50186,0 -26.30104,-11.79918 -26.30104,-26.30105l0,-263.63942c0,-14.50186 11.79918,-26.30104 26.3045,-26.30104l373.85149,0c14.50186,0 26.30104,11.79918 26.30104,26.30104l0,116.33631c0,3.66349 2.9688,6.63574 6.63574,6.63574s6.63574,-2.97226 6.63574,-6.63574l0,-116.33631c0,-21.81845 -17.75407,-39.57252 -39.57598,-39.57252zm-178.35976,342.78447l0,41.46302l-17.12851,0l0,-41.46302l17.12851,0zm0,0" fill="#798fcb" id="svg_3"/>
  </g>
 </g>
</svg>