<svg xmlns="http://www.w3.org/2000/svg" id="icon-web" width="300" height="300" viewBox="0 0 512 500">
    <path fill="white" d="m345.472656 134.921875c-8.460937-8.464844-22.234375-8.460937-30.699218 0-1.140626 1.140625-2.113282 2.382813-2.949219 3.691406 2.46875-10.082031-2.574219-20.722656-12.410157-25.007812-10.972656-4.785157-23.792968.253906-28.574218 11.230469l-68.589844 157.402343c2.984375-7.765625 1.363281-16.90625-4.886719-23.15625l-46.796875-46.796875 46.796875-46.796875c8.464844-8.464843 8.464844-22.238281 0-30.703125-8.484375-8.484375-22.214843-8.484375-30.703125 0l-62.144531 62.148438c-8.464844 8.464844-8.464844 22.234375 0 30.699218l62.144531 62.148438c8.488282 8.484375 22.21875 8.484375 30.703125 0 1.996094-1.996094 3.503907-4.292969 4.558594-6.738281-4.308594 10.824219.738281 23.230469 11.492187 27.917969 11 4.792968 23.78125-.226563 28.574219-11.226563l66.785157-153.265625c-1.195313 6.746094.796874 13.953125 6 19.15625l46.660156 46.660156-46.660156 46.660156c-8.464844 8.464844-8.464844 22.234376 0 30.699219 8.460937 8.464844 22.234374 8.464844 30.699218 0l62.011719-62.007812c8.460937-8.464844 8.460937-22.238281 0-30.703125zm-158.71875 144.25c-2.621094 2.621094-6.863281 2.621094-9.484375 0l-62.148437-62.144531c-2.613282-2.617188-2.613282-6.875 0-9.488282l62.148437-62.148437c2.621094-2.621094 6.863281-2.621094 9.484375 0 2.617188 2.617187 2.617188 6.871094 0 9.484375l-52.101562 52.101562c-2.925782 2.929688-2.925782 7.679688 0 10.609376l52.101562 52.101562c2.617188 2.613281 2.617188 6.871094 0 9.484375zm110.136719-142.988281-68.652344 157.554687c-1.484375 3.402344-5.4375 4.949219-8.828125 3.46875-3.390625-1.476562-4.949218-5.4375-3.472656-8.828125l68.652344-157.550781c1.484375-3.398437 5.449218-4.945313 8.832031-3.472656 3.394531 1.480469 4.953125 5.421875 3.46875 8.828125zm99.988281 80.84375-62.011718 62.007812c-2.613282 2.617188-6.871094 2.617188-9.488282 0h.003906c-2.617187-2.613281-2.617187-6.871094 0-9.484375l51.964844-51.964843c2.925782-2.925782 2.925782-7.675782 0-10.605469l-51.964844-51.964844c-2.617187-2.613281-2.617187-6.871094-.003906-9.484375 2.617188-2.613281 6.875-2.617188 9.488282 0l62.011718 62.011719c2.613282 2.609375 2.613282 6.867187 0 9.484375zm0 0"/>
    <path fill="#77a1d3" d="m44.730469 34.359375c-5.71875 0-10.371094 4.652344-10.371094 10.371094v297.972656c0 5.71875 4.652344 10.371094 10.371094 10.371094h422.542969c5.71875 0 10.367187-4.652344 10.367187-10.371094 0-12.621094 0-285.324219 0-297.972656 0-5.71875-4.648437-10.371094-10.367187-10.371094-3.886719 0-418.804688 0-422.542969 0zm417.910156 34.355469h-378.921875v-19.355469h378.921875zm-413.28125-19.355469h19.355469v19.355469h-19.355469zm0 288.710937v-254.351562h413.28125v254.351562zm0 0"/>
    <path fill="#798fcb" d="m467.269531 0h-422.539062c-24.667969 0-44.730469 20.066406-44.730469 44.726562v297.976563c0 24.664063 20.0625 44.726563 44.730469 44.726563h186.589843v46.863281h-80.265624c-13.332032 0-24.175782 10.84375-24.175782 24.175781v1.011719c0 13.328125 10.84375 24.171875 24.175782 24.171875h87.859374c4.144532 0 7.5-3.355469 7.5-7.5 0-4.140625-3.355468-7.5-7.5-7.5h-87.859374c-5.058594 0-9.175782-4.113282-9.175782-9.171875v-1.011719c0-5.058594 4.117188-9.171875 9.175782-9.171875h209.890624c5.058594 0 9.175782 4.113281 9.175782 9.171875v1.011719c0 5.058593-4.117188 9.171875-9.175782 9.171875h-87.027343c-4.144531 0-7.5 3.359375-7.5 7.5 0 4.144531 3.355469 7.5 7.5 7.5h87.027343c13.332032 0 24.175782-10.84375 24.175782-24.171875v-1.011719c0-13.332031-10.84375-24.175781-24.175782-24.175781h-80.265624v-46.863281h186.589843c24.664063 0 44.730469-20.0625 44.730469-44.726563v-131.488281c0-4.140625-3.355469-7.5-7.5-7.5s-7.5 3.359375-7.5 7.5v131.488281c0 16.390625-13.335938 29.726563-29.730469 29.726563-3.0625 0-414.625 0-422.542969 0-16.390624 0-29.726562-13.335938-29.726562-29.726563v-297.976563c0-16.390624 13.335938-29.726562 29.730469-29.726562h422.542969c16.390624 0 29.726562 13.335938 29.726562 29.726562v131.488282c0 4.140625 3.355469 7.5 7.5 7.5s7.5-3.359375 7.5-7.5v-131.488282c0-24.660156-20.066406-44.726562-44.730469-44.726562zm-201.589843 387.429688v46.863281h-19.359376v-46.863281zm0 0"/>
</svg>