<svg xmlns="http://www.w3.org/2000/svg" xmlns:xlink="http://www.w3.org/1999/xlink"><defs><style>
    .sprite-symbol-usage {display: none;}
    .sprite-symbol-usage:target {display: inline;}
  </style><symbol viewBox="0 0 256 212" id="bem"><path d="M0 32.692h59.85v17.603H0V32.692zM0 0h59.85v17.603H0V0zm107.38 65.132H0v17.603h103.356c11.316 0 37.72.251 47.528 16.094v-9.807c-4.778-15.592-18.86-23.89-43.505-23.89zm.25 32.691H0v17.603h103.356c25.147 0 40.99 1.006 47.528 4.527v-7.796c-5.03-12.322-26.153-14.334-43.253-14.334zm-.25 82.986H0v-17.603h103.356c11.316 0 37.72-.251 47.528-16.094v9.807c-4.778 15.592-18.86 23.89-43.505 23.89zm.25-32.691H0v-17.603h103.356c25.147 0 40.99-1.006 47.528-4.527v7.796c-5.03 12.322-26.153 14.334-43.253 14.334zm69.407 63.12H256v-10.814h-76.7c-6.79 0-22.883-.251-28.667-9.556v6.036c2.766 9.304 11.316 14.334 26.404 14.334zm-.251-19.867h78.963v-10.813H179.3c-15.34 0-24.896-.503-28.668-2.766v4.778c3.017 7.544 15.842 8.801 26.153 8.801z" fill="#fff" /></symbol><symbol viewBox="13.848 0 283.645 305.4" id="chromedev"><g fill="none" fill-rule="evenodd"><path d="M269.352 91.664h-42.436V80.04h70.577V14.31h-14.294V0H168.4v14.309h-13.848v91.664H140.26v13.861h-20.994v14.309H98.271v14.308H83.977v13.862H58.069v-14.309H44.222v-13.861H29.928v-28.17h-16.08v86.746h13.847v14.308h14.293v13.862h13.848v14.308H70.13v13.862h13.847v56.34h30.375V289.3h-13.848v-12.07h13.848v-13.862h14.294V249.06h11.613v14.308h14.294V305.4h30.375v-16.1h-14.294v-54.104h14.294V220.89h13.847v-21.016h14.294v-49.186h11.614v13.862h16.527v-30.406h-28.14V108.21h56.282z" fill="#000" /><path d="M182.248 20.569h16.974V37.56h-16.974z" fill="#fff" /></g></symbol><symbol viewBox="0 0 350 382" id="css3"><g class="layer"><path d="M310.5 343.454L174.29 380.13 38.078 343.454 6.646 2.929h335.29L310.5 343.454z" fill="#2062af" /><path d="M174.289 30.511v320.367l.308.084 110.229-29.682 25.443-290.769h-135.98z" fill="#3c9cd7" /><path d="M174.168 115.656l-97.49 40.602 3.233 40.199 94.257-40.301 100.265-42.868 4.157-41.122-104.422 43.49z" fill="#fff" /><path d="M76.677 156.258l3.233 40.199 94.257-40.301v-40.5l-97.49 40.602zM278.59 72.167l-104.422 43.489v40.5l100.265-42.868 4.157-41.121z" fill="#fff" /><path d="M76.827 156.258l3.234 40.199 144.625.461-3.235 53.598-47.59 13.398-45.748-11.551-2.772-33.268H82.833l5.545 64.225 85.945 25.412 85.479-24.951 11.09-127.523H76.827z" fill="#fff" /><path d="M174.168 156.258h-97.49l3.233 40.199 94.257.301v-40.5zm0 107.528l-.462.129-45.742-11.551-2.772-33.268H82.685l5.544 64.225 85.939 25.412v-44.947zM67.898 72.167H278.59l-4.157 41.122H72.98l-5.082-41.122z" fill="#fff" /><path d="M174.168 72.167H67.898l5.082 41.122h101.188V72.167z" opacity=".05" /></g></symbol><symbol viewBox="0 0 256 256" id="es6"><path fill="#F26522" d="M0 0h256v256H0z" /><path d="M105.536 159.959h39.157v-10.653h-27.064v-16.507h24.953v-10.653h-24.953v-15.452h27.064V96.041h-39.157v63.918zm91.462-17.371c0-12.765-.864-15.548-18.043-19.675-11.037-2.687-11.229-2.879-11.229-10.173 0-5.566 1.44-7.294 9.598-7.294 5.566 0 11.804.768 17.083 1.92l1.344-10.173c-6.335-1.44-13.053-2.112-18.62-2.112-16.219 0-21.497 5.759-21.497 17.371 0 13.533 2.111 16.508 17.563 19.963 11.517 2.495 11.709 3.07 11.709 10.173 0 6.142-1.44 7.966-10.174 7.966-6.334 0-12.092-1.152-18.042-2.976l-2.112 9.502c4.223 2.015 12.669 3.839 19.963 3.839 18.906 0 22.457-6.239 22.457-18.331zm22.266-23.801c0-9.79 4.703-11.71 16.027-11.71 2.016 0 6.239.289 9.022.865l.768-9.79c-2.88-.671-7.486-1.151-11.037-1.151-17.467 0-26.489 5.374-26.489 22.265v23.322c0 11.037 3.263 18.33 19.77 18.33 15.068 0 19.675-7.485 19.675-17.466v-4.607c0-11.037-4.703-15.836-16.315-15.836-4.127 0-8.062.576-11.421 1.728v-5.95zm9.597 14.3c4.223 0 6.43 1.44 6.43 6.046v4.703c0 4.894-1.92 7.006-7.965 7.006-6.047 0-8.062-1.728-8.062-7.006v-8.734c2.687-1.152 6.142-2.015 9.597-2.015z" fill="#FFF" /></symbol><symbol viewBox="0 0 512 512" id="fb"><path d="M448 0H64C28.704 0 0 28.704 0 64v384c0 35.296 28.704 64 64 64h192V336h-64v-80h64v-64c0-53.024 42.976-96 96-96h64v80h-32c-17.664 0-32-1.664-32 16v64h80l-32 80h-48v176h96c35.296 0 64-28.704 64-64V64c0-35.296-28.704-64-64-64z" /></symbol><symbol viewBox="0 0 200 300" id="figma"><path d="M50 300c27.6 0 50-22.4 50-50v-50H50c-27.6 0-50 22.4-50 50s22.4 50 50 50z" fill="#0acf83" /><path d="M0 150c0-27.6 22.4-50 50-50h50v100H50c-27.6 0-50-22.4-50-50z" fill="#a259ff" /><path d="M0 50C0 22.4 22.4 0 50 0h50v100H50C22.4 100 0 77.6 0 50z" fill="#f24e1e" /><path d="M100 0h50c27.6 0 50 22.4 50 50s-22.4 50-50 50h-50V0z" fill="#ff7262" /><path d="M200 150c0 27.6-22.4 50-50 50s-50-22.4-50-50 22.4-50 50-50 50 22.4 50 50z" fill="#1abcfe" /></symbol><symbol viewBox="0 0 256 256" preserveAspectRatio="xMinYMin meet" id="git"><path d="M251.172 116.594L139.4 4.828c-6.433-6.437-16.873-6.437-23.314 0l-23.21 23.21 29.443 29.443c6.842-2.312 14.688-.761 20.142 4.693 5.48 5.489 7.02 13.402 4.652 20.266l28.375 28.376c6.865-2.365 14.786-.835 20.269 4.657 7.663 7.66 7.663 20.075 0 27.74-7.665 7.666-20.08 7.666-27.749 0-5.764-5.77-7.188-14.235-4.27-21.336l-26.462-26.462-.003 69.637a19.82 19.82 0 015.188 3.71c7.663 7.66 7.663 20.076 0 27.747-7.665 7.662-20.086 7.662-27.74 0-7.663-7.671-7.663-20.086 0-27.746a19.654 19.654 0 016.421-4.281V94.196a19.378 19.378 0 01-6.421-4.281c-5.806-5.798-7.202-14.317-4.227-21.446L81.47 39.442 4.83 116.077c-6.44 6.443-6.44 16.884 0 23.322l111.774 111.768c6.435 6.438 16.873 6.438 23.316 0l111.251-111.249c6.438-6.44 6.438-16.887 0-23.324" fill="#DE4C36" /></symbol><symbol viewBox="0 0 438.536 438.536" id="github"><path d="M158.173 352.599c-3.049.568-4.381 1.999-3.999 4.281.38 2.283 2.093 3.046 5.138 2.283 3.049-.76 4.38-2.095 3.997-3.997-.378-2.092-2.091-2.95-5.136-2.567zM141.898 354.885c-3.046 0-4.568 1.041-4.568 3.139 0 2.474 1.619 3.518 4.853 3.138 3.046 0 4.57-1.047 4.57-3.138 0-2.471-1.619-3.522-4.855-3.139zM119.629 354.022c-.76 2.095.478 3.519 3.711 4.284 2.855 1.137 4.664.568 5.424-1.714.572-2.091-.666-3.61-3.711-4.568-2.856-.759-4.663-.102-5.424 1.998z" /><path d="M414.41 24.123C398.326 8.042 378.964 0 356.309 0H82.225C59.577 0 40.208 8.042 24.123 24.123 8.042 40.207 0 59.576 0 82.225v274.088c0 22.65 8.042 42.017 24.123 58.098 16.084 16.084 35.454 24.126 58.102 24.126h63.953c4.184 0 7.327-.144 9.42-.424 2.092-.288 4.184-1.526 6.279-3.717 2.096-2.187 3.14-5.376 3.14-9.562 0-.568-.05-7.046-.144-19.417-.097-12.375-.144-22.176-.144-29.41l-6.567 1.143c-4.187.76-9.469 1.095-15.846.999-6.374-.096-12.99-.76-19.841-1.998-6.855-1.239-13.229-4.093-19.13-8.562-5.898-4.477-10.085-10.328-12.56-17.559l-2.856-6.571c-1.903-4.373-4.899-9.229-8.992-14.554-4.093-5.332-8.232-8.949-12.419-10.852l-1.999-1.428c-1.331-.951-2.568-2.098-3.711-3.429-1.141-1.335-1.997-2.669-2.568-3.997-.571-1.335-.097-2.43 1.427-3.289 1.524-.855 4.281-1.279 8.28-1.279l5.708.855c3.808.76 8.516 3.042 14.134 6.851 5.614 3.806 10.229 8.754 13.846 14.843 4.38 7.806 9.657 13.75 15.846 17.843 6.184 4.097 12.419 6.143 18.699 6.143s11.704-.476 16.274-1.424c4.565-.954 8.848-2.385 12.847-4.288 1.713-12.751 6.377-22.559 13.988-29.41-10.848-1.143-20.602-2.854-29.265-5.14-8.658-2.286-17.605-5.995-26.835-11.136-9.234-5.14-16.894-11.512-22.985-19.13-6.09-7.618-11.088-17.61-14.987-29.978-3.901-12.375-5.852-26.652-5.852-42.829 0-23.029 7.521-42.637 22.557-58.814-7.044-17.32-6.379-36.732 1.997-58.242 5.52-1.714 13.706-.428 24.554 3.855 10.85 4.286 18.794 7.951 23.84 10.992 5.046 3.042 9.089 5.614 12.135 7.71 17.705-4.949 35.976-7.423 54.818-7.423 18.841 0 37.115 2.474 54.821 7.423l10.849-6.852c7.426-4.57 16.18-8.757 26.269-12.562 10.088-3.806 17.795-4.854 23.127-3.14 8.562 21.51 9.328 40.922 2.279 58.241 15.036 16.179 22.559 35.786 22.559 58.815 0 16.18-1.951 30.505-5.852 42.969-3.898 12.467-8.939 22.463-15.13 29.981-6.184 7.519-13.894 13.843-23.124 18.986-9.232 5.137-18.178 8.853-26.84 11.132-8.661 2.286-18.414 4.004-29.263 5.147 9.891 8.562 14.839 22.072 14.839 40.538v68.238c0 3.237.472 5.852 1.424 7.851.958 1.998 2.478 3.374 4.571 4.141 2.102.76 3.949 1.235 5.571 1.424 1.622.191 3.949.287 6.995.287h63.953c22.648 0 42.018-8.042 58.095-24.126 16.084-16.084 24.126-35.454 24.126-58.102V82.225c-.002-22.649-8.044-42.021-24.125-58.102z" /><path d="M86.793 319.195c-1.331.948-1.141 2.471.572 4.565 1.906 1.902 3.427 2.189 4.57.855 1.331-.948 1.141-2.471-.575-4.569-1.902-1.71-3.424-1.997-4.567-.851zM77.374 312.057c-.57 1.335.096 2.478 1.999 3.426 1.521.955 2.762.767 3.711-.568.57-1.335-.096-2.478-1.999-3.433-1.903-.572-3.14-.38-3.711.575zM95.646 330.331c-1.715.948-1.715 2.666 0 5.137 1.713 2.478 3.328 3.142 4.853 1.998 1.714-1.334 1.714-3.142 0-5.427-1.521-2.468-3.14-3.046-4.853-1.708zM105.641 343.174c-1.714 1.526-1.336 3.327 1.142 5.428 2.281 2.279 4.185 2.566 5.708.849 1.524-1.519 1.143-3.326-1.142-5.42-2.281-2.28-4.185-2.568-5.708-.857z" /></symbol><symbol viewBox="0 0 256 566" preserveAspectRatio="xMinYMin meet" id="gulp"><path d="M197.28 548.749l5.427-90.43 14.985-25.58s-34.106 13.952-91.205 13.952c-57.1 0-90.689-13.694-90.689-13.694l16.794 27.904 5.941 87.848c0 9.418 31.059 17.052 69.374 17.052 38.313 0 69.373-7.634 69.373-17.052m-17.119-422.295l11.391-45.025 63.081-66.376L238.007.892l-66.784 70.707-13.226 53.793a886.14 886.14 0 00-29.873-.497c-70.336 0-127.355 8.016-127.355 17.902 0 9.887 57.019 17.902 127.355 17.902 70.335 0 127.353-8.015 127.353-17.902 0-7.28-30.924-13.546-75.316-16.343" fill="#D34A47" /><path d="M173.535 151.669s-2.467.553-9.724.584c-7.259.03-12.413-.047-14.466-1.917-.552-.502-.854-1.499-.851-2.174.006-1.285.918-2.042 2.08-2.516l1.099 1.724c-.478.165-.751.36-.752.568-.004.976 7.422 1.644 13.102 1.572 5.681-.07 12.545-.538 12.551-1.5 0-.291-.519-.565-1.422-.781l1.094-1.712c1.472.457 2.757 1.34 2.754 2.868-.014 2.598-3.32 2.993-5.465 3.284" fill="#FFF" /><path d="M254.509 15.184c1.586-1.832-.821-6.518-5.376-10.465C244.576.774 239.596-.94 238.007.892c-1.587 1.832.821 6.518 5.378 10.463 4.555 3.946 9.537 5.662 11.124 3.829m-60.263 312.681c-1.495-14.384 31.462-35.216 23.004-35.883-18.208 1.041-27.27 21.338-36.431 42.596-3.357 7.791-14.844 41.013-22.378 36.923-7.532-4.088 9.765-31.407 14.613-47.631-5.594 4.102-26.109 20.041-31.396 5.114-8.5 7.219-26.663 11.13-24.614-7.833-4.522 8.01-14.671 19.193-26.853 14.546-15.998-6.101 9.27-57.062 15.553-54.491 6.284 2.57-1.268 14.179-3.246 18.687-4.35 9.921-9.375 22.393-6.018 24.946 5.751 4.374 21.401-16.547 21.749-17.007 2.927-3.867 11.266-29.166 17.987-26.261 6.721 2.905-16.764 36.308-7.983 42.937 1.771 1.338 9.017-.825 13.425-5.594 2.852-3.085 1.871-9.918 11.378-32.59 9.507-22.671 17.98-50.905 24.5-48.754 6.52 2.15 1.146 16.641-1.193 22.043-10.976 25.354-29.956 67.241-21.005 64.07 8.951-3.17 13.612-3.356 22.377-13.613 8.765-10.257 8.361-27.152 14.203-26.793 5.844.36 4.863 5.777 3.446 9.902 5.75-6.58 27.256-20.438 32.448-6.713 6.15 16.249-30.769 39.72-21.564 38.523 8.975-1.167 23.515-10.376 29.723-18.749l17.088-153.626s-17.195 14.23-126.589 14.23c-109.395 0-124.811-13.934-124.811-13.934l14.548 140.224c7.722-21.947 26.059-66.339 54.963-64.849 13.148.678 30.7 25.995 15.665 26.853-6.364.362-7.01-12.637-14.546-14.546-5.438-1.378-13.009 3.043-17.902 7.833-9.758 9.55-30.745 47.229-27.972 66.014 3.533 23.949 33.048-8.322 38.042-17.903 3.517-6.749 5.893-26.745 13.585-24.647 7.693 2.098-.671 22.734-6.247 40.979-6.264 20.487-9.557 42.098-17.408 39.612-7.852-2.484 4.938-28.932 4.475-33.566-7.38 6.809-20.976 24.047-38.37 15.515l9.035 87.078s24.013 18.973 96.35 18.973c72.337 0 97.239-18.677 97.239-18.677l11.219-100.857c-9.179 8.938-38.229 24.81-40.089 6.919" fill="#D34A47" /></symbol><symbol viewBox="0 0 256 292" id="html-5"><g class="layer"><path d="M255.555.766l-23.241 260.36-104.47 28.962-104.182-28.922L.445.766h255.11z" fill="#E44D26" /><path d="M128 267.95l84.417-23.403 19.86-222.49H128V267.95z" fill="#F16529" /><path d="M82.82 85.932H128V53.995H47.917l.764 8.568 7.85 88.01H128v-31.937H85.739L82.82 85.932zm7.198 80.61h-32.06l4.474 50.146 65.421 18.16.147-.04V201.58l-.14.037-35.568-9.604-2.274-25.471z" fill="#EBEBEB" /><path d="M127.89 150.573h39.327l-3.708 41.42-35.62 9.614v33.226l65.473-18.145.48-5.396 7.506-84.08.779-8.576H127.89v31.937zm0-64.719v.078h77.143l.64-7.178 1.456-16.191.763-8.568H127.89v31.86-.001z" fill="#FFF" /></g></symbol><symbol viewBox="0 0 256.4 291.5" id="javascript"><path d="M23.788 262.015l-23.8-262 256.4.1-23.6 261.7-104.8 29.6-104.2-29.4zm189.7-14.3l19.9-224.4h-105l.8 247.5 84.3-23.1zm-94.9-191.5h-25.5l-.3 134.3-49.5-13.5.1 30.7 75.2 20.3v-171.8z" fill="#d4b830" /><path d="M110.188 225.515c-3.3-1-19.6-5.4-36.2-9.9l-30.1-8.1v-15.1c0-14.8 0-15.1 1.5-14.6.8.3 11.8 3.3 24.4 6.8l22.9 6.3.2-67 .2-67h25v85.2c0 67.7-.2 85.2-.9 85.2-.5-.1-3.7-.9-7-1.8z" opacity=".986" fill="transparent" /><path d="M43.388 207.715l-.1-30.7s31.6 8.9 49.5 13.5l.3-134.2h25.5v171.7l-75.2-20.3z" fill-opacity=".922" opacity=".986" fill="transparent" /><path d="M128.388 23.215h105l-19.9 224.4-85.1 23.1v-247.5zm79.7 186.8l6.9-83.9-51 5.7v-44.8l54.4-.2 2.2-30.6-82.1.4 1.1 111.4 49.6-8.5-.7 24.8-50 13.3.5 30.4 69.1-18z" fill="#fdd83c" /></symbol><symbol viewBox="0 0 256 256" id="laravel"><g fill="#F35045"><path d="M160.445 208c2 2.889 3.222 2.667 4.777 2 1.555-.667 81.556-27.667 84-28.555 2.444-.889 1.667-1.667.89-2.89-.778-1.222-27.445-37.444-28.779-39.555-1.333-2.111-2-1.667-4.111-1l-84.805 22.067S158.445 205.11 160.445 208zM256 171.115v-42.398c-9.541 2.542-21.609 5.756-26.373 7.023 7.187 9.616 18.423 24.665 26.373 35.375zm-26.455-87.594c-1.307.297-30.247 5.527-32.03 5.764-1.782.238-1.188 1.248-.475 2.258l25.467 34.943s31.139-7.725 33.041-8.141c.154-.034.305-.07.452-.107v-4.627c-5.66-7.177-21.08-26.718-22.413-28.544-1.604-2.199-2.734-1.842-4.042-1.546z" /><path d="M47.456 28.634c6.267-.285 6.839 1.141 9.592 5.224l69.17 115.642 86.974-20.835c-4.819-6.831-26.695-37.846-28.81-40.806-2.376-3.328.06-4.873 3.923-5.526 3.862-.654 37.14-6.24 39.992-6.656 2.853-.416 5.112-1.426 9.746 4.16 2.372 2.858 10.412 12.87 17.957 22.255V48c0-13.222-4.695-24.528-14.083-33.917C232.528 4.695 221.222 0 208 0H48C34.778 0 23.472 4.695 14.083 14.083 8.698 19.47 4.865 25.487 2.57 32.134c15.678-1.288 40.501-3.3 44.887-3.5z" /><path d="M168.289 223.564c-7.334 2.222-10.623 3.325-15.4-3.342-3.578-4.993-22.927-39.843-32.414-57.023-17.955 4.702-50.814 13.278-60.29 15.555-9.248 2.222-13.198-3.323-14.717-6.74C44.403 169.616 17.289 111.158 0 73.65V208c0 13.223 4.695 24.527 14.083 33.917C23.472 251.305 34.778 256 48 256h160c13.222 0 24.528-4.695 33.917-14.083C251.305 232.527 256 221.223 256 208v-15.781c-19.64 7.184-82.77 29.848-87.711 31.345z" /><path d="M60.412 165.288c2.6-.595 51.313-12.253 52.353-12.476 1.04-.223 1.708-.817.594-2.747-1.114-1.93-64.934-112.09-64.934-112.09-.589-1.011-.421-1.348-2.022-1.264-1.427.076-37.538 3.298-45.898 3.996a51.038 51.038 0 00-.461 5.331c8.487 17.375 57.199 117.837 57.472 118.655.297.892.297 1.189 2.896.595z" /></g></symbol><symbol viewBox="0 0 31.012 31.012" id="mail"><path d="M25.109 21.51a.495.495 0 01-.342-.136l-5.754-5.398a.5.5 0 11.685-.728l5.754 5.398a.5.5 0 01-.343.864zM5.902 21.51a.5.5 0 01-.343-.864l5.756-5.398a.5.5 0 01.685.728l-5.756 5.398a.495.495 0 01-.342.136z" /><path d="M28.512 26.529H2.5a2.503 2.503 0 01-2.5-2.5V6.982c0-1.379 1.122-2.5 2.5-2.5h26.012c1.378 0 2.5 1.121 2.5 2.5v17.047c0 1.379-1.122 2.5-2.5 2.5zM2.5 5.482c-.827 0-1.5.673-1.5 1.5v17.047c0 .827.673 1.5 1.5 1.5h26.012c.827 0 1.5-.673 1.5-1.5V6.982c0-.827-.673-1.5-1.5-1.5H2.5z" /><path d="M15.506 18.018c-.665 0-1.33-.221-1.836-.662L.83 6.155a.501.501 0 01-.049-.706.503.503 0 01.706-.048l12.84 11.2c.639.557 1.719.557 2.357 0L29.508 5.419a.5.5 0 01.658.754L17.342 17.355c-.507.442-1.171.663-1.836.663z" /></symbol><symbol fill="#fff" viewBox="0 0 490.667 490.667" id="mysql"><path d="M245.333 0C172.928 0 96 22.421 96 64v192c0 42.027 75.115 64 149.333 64s149.333-21.973 149.333-64V64c.001-41.579-76.927-64-149.333-64zm128 256c0 20.181-52.565 42.667-128 42.667s-128-22.485-128-42.667v-29.909c27.883 19.584 78.933 29.909 128 29.909s100.117-10.325 128-29.909V256zm0-64c0 17.813-48.704 42.667-128 42.667s-128-24.853-128-42.667v-29.909c27.883 19.584 78.933 29.909 128 29.909s100.117-10.325 128-29.909V192zm0-64c0 17.813-48.704 42.667-128 42.667s-128-24.853-128-42.667V98.091c27.883 19.584 78.933 29.909 128 29.909s100.117-10.325 128-29.909V128zm-128-21.333c-79.296 0-128-24.853-128-42.667 0-17.813 48.704-42.667 128-42.667s128 24.853 128 42.667c0 17.813-48.704 42.667-128 42.667zM248.661 384.405l-3.157-.533C226.795 380.821 224 375.957 224 373.333c0-4.245 8.512-10.667 21.355-10.667 12.608 0 20.928 5.995 21.355 10.304.555 5.867 5.739 10.389 11.627 9.6 5.867-.555 10.155-5.76 9.6-11.627-1.621-16.896-19.925-29.632-42.603-29.632-23.936 0-42.688 14.059-42.688 32 0 16.704 13.248 27.328 39.403 31.595l1.728-10.517 1.429 11.051c17.728 2.923 21.44 7.36 21.44 10.56 0 4.245-8.512 10.667-21.355 10.667-12.608 0-20.928-6.016-21.355-10.325-.555-5.867-5.611-10.24-11.627-9.6-5.867.555-10.155 5.76-9.6 11.627C204.331 435.264 222.635 448 245.312 448 269.248 448 288 433.941 288 416c0-16.683-13.227-27.307-39.339-31.595zM394.667 373.333c0-17.643-14.357-32-32-32h-21.333c-17.643 0-32 14.357-32 32V416c0 17.643 14.357 32 32 32h21.333c4.928 0 9.536-1.216 13.696-3.2l.085.085c2.091 2.069 4.821 3.115 7.552 3.115s5.461-1.045 7.531-3.115c4.16-4.16 4.16-10.923 0-15.083l-.085-.085c2.005-4.16 3.221-8.789 3.221-13.717v-42.667zm-21.334 38.272l-3.136-3.136c-4.16-4.16-10.923-4.16-15.083 0s-4.16 10.923 0 15.083l3.115 3.115h-16.896c-5.888 0-10.667-4.779-10.667-10.667v-42.667c0-5.888 4.779-10.667 10.667-10.667h21.333c5.888 0 10.667 4.779 10.667 10.667v38.272zM469.333 426.667h-32V352c0-5.888-4.779-10.667-10.667-10.667s-10.667 4.779-10.667 10.667v85.333c0 5.888 4.779 10.667 10.667 10.667h42.667c5.888 0 10.667-4.779 10.667-10.667s-4.779-10.666-10.667-10.666zM175.445 385.109a10.68 10.68 0 00-14.315 4.779l-11.797 23.616-11.797-23.595c-2.645-5.269-9.045-7.403-14.315-4.779-5.269 2.645-7.424 9.045-4.779 14.315l18.965 37.909-18.944 37.867c-2.624 5.269-.491 11.669 4.779 14.315a10.599 10.599 0 004.757 1.131 10.7 10.7 0 009.557-5.909l42.667-85.333c2.625-5.27.492-11.67-4.778-14.316zM88.704 341.888c-4.331-1.472-9.152.043-11.904 3.712l-23.467 31.275L29.867 345.6a10.615 10.615 0 00-11.904-3.712A10.668 10.668 0 0010.667 352v85.333c0 5.888 4.779 10.667 10.667 10.667S32 443.221 32 437.333V384l12.8 17.067c4.032 5.376 13.056 5.376 17.067 0L74.667 384v53.333c0 5.888 4.779 10.667 10.667 10.667S96 443.221 96 437.333V352c0-4.587-2.944-8.661-7.296-10.112z" /></symbol><symbol viewBox="0 0 29.731 29.731" id="phone"><path d="M23.895 29.731c-1.237 0-2.731-.31-4.374-.93-3.602-1.358-7.521-4.042-11.035-7.556C4.971 17.73 2.287 13.81.928 10.208-.307 6.933-.31 4.245.921 3.015c.177-.177.357-.367.543-.563C2.587 1.271 3.856-.058 5.538.002 6.697.05 7.82.77 8.97 2.201c3.398 4.226 1.866 5.732.093 7.478l-.313.31c-.29.29-.838 1.633 4.26 6.731 1.664 1.664 3.083 2.882 4.217 3.619.714.464 1.991 1.166 2.515.642l.315-.318c1.744-1.769 3.25-3.296 7.473.099 1.431 1.15 2.15 2.272 2.198 3.433.069 1.681-1.27 2.953-2.452 4.075-.195.186-.385.366-.562.542-.611.612-1.588.919-2.819.919zM5.418 1C4.223 1 3.144 2.136 2.189 3.141c-.192.202-.378.398-.561.581-.917.916-.824 3.323.236 6.134 1.31 3.472 3.913 7.266 7.33 10.683 3.416 3.415 7.208 6.018 10.681 7.327 2.811 1.062 5.218 1.152 6.133.237.183-.183.379-.369.581-.56 1.027-.976 2.192-2.082 2.141-3.309-.035-.843-.649-1.75-1.825-2.695-3.519-2.83-4.503-1.831-6.135-.176l-.32.323c-.78.781-2.047.608-3.767-.51-1.193-.776-2.667-2.038-4.379-3.751-4.231-4.23-5.584-6.819-4.26-8.146l.319-.315c1.659-1.632 2.66-2.617-.171-6.138-.947-1.175-1.853-1.789-2.696-1.825L5.418 1z" /></symbol><symbol viewBox="0 0 256 134" id="php"><g fill-rule="evenodd"><ellipse fill="#8993BE" cx="128" cy="66.63" rx="128" ry="66.63" /><path d="M35.945 106.082l14.028-71.014H82.41c14.027.877 21.041 7.89 21.041 20.165 0 21.041-16.657 33.315-31.562 32.438H56.11l-3.507 18.411H35.945zm23.671-31.561L64 48.219h11.397c6.137 0 10.52 2.63 10.52 7.89-.876 14.905-7.89 17.535-15.78 18.412h-10.52zm40.576 13.15l14.027-71.013h16.658l-3.507 18.41h15.78c14.028.877 19.288 7.89 17.535 16.658l-6.137 35.945h-17.534l6.137-32.438c.876-4.384.876-7.014-5.26-7.014H124.74l-7.89 39.452h-16.658zm53.233 18.411l14.027-71.014h32.438c14.028.877 21.042 7.89 21.042 20.165 0 21.041-16.658 33.315-31.562 32.438h-15.781l-3.507 18.411h-16.657zm23.67-31.561l4.384-26.302h11.398c6.137 0 10.52 2.63 10.52 7.89-.876 14.905-7.89 17.535-15.78 18.412h-10.521z" fill="#232531" /></g></symbol><symbol viewBox="0 0 491 38" id="safari-panel"><g class="layer"><g fill="#ccc"><rect height="39.053" rx="8" ry="8" width="490.812" x=".167" y=".167" /><path d="M.167 32.043h490.812v7.01H.167z" /></g><path d="M476.266 24.2c0 2.202-2.802 4.005-6.227 4.005H108.875c-3.43 0-6.227-1.803-6.227-4.006v-8.01c0-2.204 2.796-4.006 6.227-4.006H470.04c3.425 0 6.227 1.802 6.227 4.005V24.2z" fill="#F5F5F5" /><circle cx="29.026" cy="20.194" fill="#CC584C" r="7.942" /><circle cx="53.066" cy="20.194" fill="#FFD464" r="7.942" /><circle cx="77.106" cy="20.194" fill="#198058" r="7.943" /></g></symbol><symbol viewBox="0 0 512 384" id="sass"><path fill="#CF649A" d="M440.6 220.6c-17.9.101-33.4 4.4-46.4 10.801-4.8-9.5-9.6-17.801-10.399-24-.9-7.2-2-11.601-.9-20.2C384 178.6 389 166.4 389 165.4c-.101-.9-1.101-5.3-11.4-5.4s-19.2 2-20.2 4.7-3 8.9-4.3 15.3c-1.8 9.4-20.6 42.7-31.3 60.2-3.5-6.8-6.5-12.8-7.101-17.601-.899-7.199-2-11.6-.899-20.199 1.1-8.601 6.1-20.8 6.1-21.8-.1-.9-1.1-5.3-11.399-5.4-10.301-.1-19.2 2-20.2 4.7s-2.1 9.1-4.3 15.3C281.9 201.4 256.9 257 250.4 271.5c-3.3 7.4-6.199 13.3-8.3 17.3-2.1 4-.1.3-.3.7-1.8 3.4-2.8 5.3-2.8 5.3v.101c-1.4 2.5-2.9 4.899-3.601 4.899-.5 0-1.5-6.7.2-15.899 3.7-19.301 12.7-49.4 12.601-50.5 0-.5 1.699-5.801-5.801-8.5-7.3-2.7-9.899 1.8-10.5 1.8-.6 0-1.1 1.6-1.1 1.6s8.1-33.899-15.5-33.899c-14.8 0-35.2 16.1-45.3 30.8-6.4 3.5-20 10.899-34.4 18.8-5.5 3-11.2 6.2-16.6 9.1L117.9 251.9c-28.6-30.5-81.5-52.1-79.3-93.1.8-14.9 6-54.2 101.601-101.8 78.3-39 141-28.3 151.899-4.5 15.5 34-33.5 97.2-114.899 106.3-31 3.5-47.301-8.5-51.4-13-4.3-4.7-4.9-4.9-6.5-4-2.6 1.4-1 5.6 0 8.1 2.4 6.3 12.4 17.5 29.4 23.1 14.899 4.9 51.3 7.6 95.3-9.4 49.3-19.1 87.8-72.1 76.5-116.4-11.5-45.1-86.3-59.9-157-34.8C121.4 27.4 75.8 50.8 43 81.5 4 117.9-2.2 149.7.4 162.9c9.101 47.1 74 77.8 100 100.5-1.3.699-2.5 1.399-3.6 2-13 6.399-62.5 32.3-74.9 59.699-14 31 2.2 53.301 13 56.301 33.4 9.3 67.6-7.4 86.1-34.9 18.399-27.5 16.2-63.2 7.7-79.5l-.301-.6 10.2-6c6.601-3.9 13.101-7.5 18.8-10.601-3.199 8.7-5.5 19-6.699 34-1.4 17.601 5.8 40.4 15.3 49.4 4.2 3.899 9.2 4 12.3 4 11 0 16-9.101 21.5-20 6.8-13.3 12.8-28.7 12.8-28.7s-7.5 41.7 13 41.7c7.5 0 15-9.7 18.4-14.7v.1s.2-.3.6-1a36.13 36.13 0 001.2-1.899v-.2c3-5.2 9.7-17.1 19.7-36.8 12.899-25.4 25.3-57.2 25.3-57.2s1.2 7.8 4.9 20.6c2.199 7.601 6.999 15.9 10.699 24-3 4.2-4.8 6.601-4.8 6.601l.1.1c-2.399 3.2-5.1 6.601-7.899 10-10.2 12.2-22.4 26.101-24 30.101-1.9 4.699-1.5 8.199 2.2 11 2.7 2 7.5 2.399 12.6 2 9.2-.601 15.6-2.9 18.8-4.301 5-1.8 10.7-4.5 16.2-8.5 10-7.399 16.1-17.899 15.5-31.899-.3-7.7-2.8-15.3-5.9-22.5.9-1.3 1.801-2.601 2.7-4 15.8-23.101 28-48.5 28-48.5s1.2 7.8 4.9 20.6c1.899 6.5 5.7 13.601 9.1 20.601-14.8 12.1-24.1 26.1-27.3 35.3-5.9 17-1.3 24.7 7.4 26.5 3.899.8 9.5-1 13.699-2.8 5.2-1.7 11.5-4.601 17.301-8.9 10-7.4 19.6-17.7 19.1-31.6-.3-6.4-2-12.7-4.3-18.7 12.6-5.2 28.899-8.2 49.6-5.7 44.5 5.2 53.3 33 51.601 44.6-1.7 11.601-11 18-14.101 20-3.1 1.9-4.1 2.601-3.8 4 .4 2.101 1.8 2 4.5 1.601 3.7-.601 23.4-9.5 24.2-30.899 1.2-27.504-24.9-57.504-71.2-57.205zM97.4 336.3c-14.7 16.1-35.4 22.2-44.2 17-9.5-5.5-5.801-29.2 12.3-46.3 11-10.4 25.3-20 34.7-25.9 2.1-1.3 5.3-3.199 9.1-5.5.6-.399 1-.6 1-.6.7-.4 1.5-.9 2.3-1.4 6.7 24.4.3 45.8-15.2 62.7zm107.5-73.1c-5.1 12.5-15.9 44.6-22.4 42.8-5.601-1.5-9-25.8-1.101-49.8 4-12.101 12.5-26.5 17.5-32.101 8.101-9 16.9-12 19.101-8.3 2.6 4.801-9.9 39.601-13.1 47.401zm88.7 42.4c-2.2 1.101-4.2 1.9-5.1 1.301-.7-.4.899-1.9.899-1.9s11.1-11.9 15.5-17.4c2.5-3.199 5.5-6.899 8.7-11.1v1.2C313.6 292.1 299.8 301.7 293.6 305.6zm68.399-15.6c-1.6-1.2-1.399-4.9 4-16.5 2.101-4.6 6.9-12.3 15.2-19.6 1 3 1.601 5.899 1.5 8.6-.099 18-12.899 24.7-20.7 27.5z" /></symbol><symbol viewBox="0 0 94 94" id="vk"><path d="M89 0H5a5 5 0 00-5 5v84a5 5 0 005 5h84a5 5 0 005-5V5a5 5 0 00-5-5zM74.869 52.943c2.562 2.5 5.271 4.854 7.572 7.617 1.018 1.22 1.978 2.48 2.709 3.899 1.041 2.024.101 4.247-1.713 4.366l-11.256-.003c-2.906.239-5.22-.931-7.172-2.918-1.555-1.585-3.001-3.277-4.5-4.914-.611-.673-1.259-1.306-2.025-1.806-1.534-.996-2.867-.692-3.748.909-.896 1.63-1.103 3.438-1.185 5.255-.125 2.655-.925 3.348-3.588 3.471-5.69.268-11.091-.596-16.108-3.463-4.429-2.53-7.854-6.104-10.838-10.146-5.816-7.883-10.27-16.536-14.27-25.437-.901-2.005-.242-3.078 1.967-3.119 3.676-.073 7.351-.063 11.022-.004 1.496.023 2.485.879 3.058 2.289 1.985 4.885 4.421 9.533 7.471 13.843.813 1.147 1.643 2.292 2.823 3.103 1.304.896 2.298.601 2.913-.854.393-.928.563-1.914.647-2.906.292-3.396.327-6.792-.177-10.175-.315-2.116-1.507-3.483-3.617-3.883-1.074-.204-.917-.602-.395-1.215.906-1.062 1.76-1.718 3.456-1.718l12.721-.002c2.006.392 2.452 1.292 2.725 3.311l.012 14.133c-.021.782.391 3.098 1.795 3.61 1.123.371 1.868-.53 2.54-1.244 3.048-3.235 5.22-7.056 7.167-11.009.857-1.743 1.6-3.549 2.32-5.356.533-1.337 1.367-1.995 2.875-1.971l12.246.013c.36 0 .729.004 1.086.063 2.062.355 2.627 1.243 1.99 3.257-1.004 3.163-2.959 5.799-4.871 8.441-2.043 2.825-4.224 5.557-6.252 8.396-1.858 2.604-1.708 3.912.6 6.167z" /></symbol><symbol viewBox="0 0 234 235.1" id="vscode"><path d="M83.3 143.9l-58 45.2L0 176.5V58.7L25.2 46l57.6 45.3L174 0l60 23.9v186.9l-59.7 24.3-91-91.2zm88.9 15.9V75.3l-54.6 42.3 54.6 42.2zM27.3 144.6L56 118.5 27.3 89.9v54.7z" fill="#0179cb" /></symbol><symbol viewBox="0 0 670 630" id="web"><g class="layer"><ellipse cx="335.5" cy="315.38" fill-opacity=".01" rx="331.5" ry="311.38" stroke="#e684ae" stroke-dasharray="null" stroke-linecap="null" stroke-linejoin="null" stroke-width="6" /><path d="M418.162 233.874c-7.486-7.49-19.672-7.486-27.161 0a19.257 19.257 0 00-2.61 3.266c2.185-8.92-2.277-18.334-10.98-22.126-9.708-4.234-21.05.225-25.281 9.937l-60.686 139.264c2.64-6.871 1.206-14.958-4.324-20.488l-41.404-41.404 41.404-41.405c7.49-7.49 7.49-19.675 0-27.165-7.506-7.506-19.655-7.506-27.165 0l-54.983 54.987c-7.49 7.49-7.49 19.672 0 27.162l54.983 54.986c7.51 7.507 19.659 7.507 27.165 0a19.091 19.091 0 004.034-5.961c-3.813 9.577.653 20.553 10.167 24.7 9.733 4.241 21.041-.2 25.282-9.932l59.09-135.605c-1.058 5.97.704 12.346 5.308 16.95l41.283 41.283-41.283 41.283c-7.49 7.49-7.49 19.672 0 27.162 7.486 7.489 19.672 7.489 27.161 0l54.866-54.863c7.486-7.49 7.486-19.676 0-27.165l-54.866-54.866zM277.733 361.502a5.93 5.93 0 01-8.391 0l-54.987-54.984c-2.312-2.315-2.312-6.082 0-8.395l54.987-54.986a5.93 5.93 0 018.391 0 5.937 5.937 0 010 8.391l-46.097 46.098a6.644 6.644 0 000 9.387l46.097 46.097a5.937 5.937 0 010 8.392zM375.18 234.99L314.437 374.39a5.932 5.932 0 01-7.81 3.069 5.942 5.942 0 01-3.073-7.811l60.741-139.396a5.948 5.948 0 017.815-3.072 5.929 5.929 0 013.069 7.81zm88.466 71.527l-54.866 54.863a5.94 5.94 0 01-8.395 0h.004a5.937 5.937 0 010-8.392l45.976-45.976a6.64 6.64 0 000-9.384l-45.976-45.976a5.94 5.94 0 01-.004-8.392c2.316-2.312 6.083-2.316 8.395 0l54.866 54.866c2.312 2.309 2.312 6.076 0 8.391zm0 0" fill="#fff" /><path d="M152.076 144.9c-5.06 0-9.176 4.116-9.176 9.176v263.636c0 5.06 4.116 9.176 9.176 9.176h373.851c5.06 0 9.173-4.116 9.173-9.176V154.076c0-5.06-4.113-9.176-9.173-9.176H152.076zm369.753 30.397H186.57V158.17H521.83v17.126zM156.17 158.17h17.126v17.126H156.17V158.17zm0 255.442V188.571H521.83v225.042H156.17zm0 0" fill="#77a1d3" /><path d="M525.924 114.5H152.076c-21.825 0-39.576 17.754-39.576 39.573v263.639c0 21.822 17.75 39.572 39.576 39.572h165.088v41.463h-71.016c-11.796 0-21.39 9.595-21.39 21.39v.896c0 11.792 9.594 21.386 21.39 21.386h77.735a6.633 6.633 0 006.636-6.636 6.635 6.635 0 00-6.636-6.636h-77.735c-4.476 0-8.118-3.639-8.118-8.114v-.896c0-4.475 3.642-8.115 8.118-8.115h185.704c4.476 0 8.118 3.64 8.118 8.115v.896c0 4.475-3.642 8.114-8.118 8.114h-76.999a6.635 6.635 0 00-6.636 6.636 6.633 6.633 0 006.636 6.636h76.999c11.796 0 21.39-9.594 21.39-21.386v-.896c0-11.795-9.594-21.39-21.39-21.39h-71.016v-41.463h165.088c21.822 0 39.576-17.75 39.576-39.572V301.376c0-3.664-2.969-6.636-6.636-6.636s-6.635 2.972-6.635 6.636v116.336c0 14.502-11.8 26.301-26.305 26.301H152.073c-14.502 0-26.302-11.8-26.302-26.301v-263.64c0-14.501 11.8-26.3 26.305-26.3h373.851c14.502 0 26.302 11.799 26.302 26.3V270.41a6.635 6.635 0 1013.271 0V154.073c0-21.819-17.754-39.573-39.576-39.573zm-178.36 342.784v41.463h-17.128v-41.463h17.128zm0 0" fill="#798fcb" /></g></symbol></defs><use id="bem-usage" xlink:href="#bem" class="sprite-symbol-usage" /><use id="chromedev-usage" xlink:href="#chromedev" class="sprite-symbol-usage" /><use id="css3-usage" xlink:href="#css3" class="sprite-symbol-usage" /><use id="es6-usage" xlink:href="#es6" class="sprite-symbol-usage" /><use id="fb-usage" xlink:href="#fb" class="sprite-symbol-usage" /><use id="figma-usage" xlink:href="#figma" class="sprite-symbol-usage" /><use id="git-usage" xlink:href="#git" class="sprite-symbol-usage" /><use id="github-usage" xlink:href="#github" class="sprite-symbol-usage" /><use id="gulp-usage" xlink:href="#gulp" class="sprite-symbol-usage" /><use id="html-5-usage" xlink:href="#html-5" class="sprite-symbol-usage" /><use id="javascript-usage" xlink:href="#javascript" class="sprite-symbol-usage" /><use id="laravel-usage" xlink:href="#laravel" class="sprite-symbol-usage" /><use id="mail-usage" xlink:href="#mail" class="sprite-symbol-usage" /><use id="mysql-usage" xlink:href="#mysql" class="sprite-symbol-usage" /><use id="phone-usage" xlink:href="#phone" class="sprite-symbol-usage" /><use id="php-usage" xlink:href="#php" class="sprite-symbol-usage" /><use id="safari-panel-usage" xlink:href="#safari-panel" class="sprite-symbol-usage" /><use id="sass-usage" xlink:href="#sass" class="sprite-symbol-usage" /><use id="vk-usage" xlink:href="#vk" class="sprite-symbol-usage" /><use id="vscode-usage" xlink:href="#vscode" class="sprite-symbol-usage" /><use id="web-usage" xlink:href="#web" class="sprite-symbol-usage" /></svg>